<svg aria-hidden="true" style="position: absolute; width: 0; height: 0; overflow: hidden;" version="1.1" xmlns="http://www.w3.org/2000/svg" xmlns:xlink="http://www.w3.org/1999/xlink">
<defs>
<symbol id="phone-call" viewBox="0 0 32 32">
<path d="M8.017 29.333c0.002 1.472 1.195 2.665 2.667 2.667h10.667c1.472-0.002 2.665-1.195 2.667-2.667v-26.667c-0.002-1.472-1.195-2.665-2.667-2.667h-10.667c-1.472 0.002-2.665 1.195-2.667 2.667zM21.35 30.933h-10.667c-0.884 0-1.6-0.716-1.6-1.6v-3.733h13.867v3.733c0 0.884-0.716 1.6-1.6 1.6zM9.083 20.8v-15.467h13.867v19.2h-13.867zM10.683 1.067h10.667c0.884 0 1.6 0.716 1.6 1.6v1.6h-13.867v-1.6c0-0.884 0.716-1.6 1.6-1.6z"></path>
<path d="M16.017 26.667c-0.884 0-1.6 0.716-1.6 1.6s0.716 1.6 1.6 1.6 1.6-0.716 1.6-1.6-0.716-1.6-1.6-1.6zM16.017 28.8c-0.295 0-0.533-0.239-0.533-0.533s0.239-0.533 0.533-0.533 0.533 0.239 0.533 0.533-0.239 0.533-0.533 0.533z"></path>
<path d="M14.95 2.133h4.267v1.067h-4.267z"></path>
<path d="M12.817 2.133h1.067v1.067h-1.067z"></path>
<path d="M11.75 23.467h8.533c1.473 0 2.667-1.194 2.667-2.667s-1.194-2.667-2.667-2.667h-8.533c-1.473 0-2.667 1.194-2.667 2.667s1.194 2.667 2.667 2.667zM21.883 20.8c0 0.884-0.716 1.6-1.6 1.6h-6.414c0.729-0.942 0.729-2.258 0-3.2h6.414c0.884 0 1.6 0.716 1.6 1.6zM11.75 19.2c0.884 0 1.6 0.716 1.6 1.6s-0.716 1.6-1.6 1.6-1.6-0.716-1.6-1.6 0.716-1.6 1.6-1.6z"></path>
<path d="M18.15 9.067c0-1.178-0.955-2.133-2.133-2.133s-2.133 0.955-2.133 2.133 0.955 2.133 2.133 2.133 2.133-0.955 2.133-2.133zM16.017 10.133c-0.589 0-1.067-0.478-1.067-1.067s0.478-1.067 1.067-1.067 1.067 0.478 1.067 1.067-0.478 1.067-1.067 1.067z"></path>
<path d="M13.883 16.533h4.267c0.295 0 0.533-0.239 0.533-0.533v-3.2c0-0.884-0.716-1.6-1.6-1.6h-2.133c-0.884 0-1.6 0.716-1.6 1.6v3.2c0 0.295 0.239 0.533 0.533 0.533zM14.417 12.8c0-0.295 0.239-0.533 0.533-0.533h2.133c0.295 0 0.533 0.239 0.533 0.533v2.667h-3.2z"></path>
<path d="M6.95 10.133l-0.342-0.41c-0.922 0.81-1.498 1.943-1.61 3.165-0.004 1.336 0.57 2.608 1.574 3.489l0.754-0.754c-0.784-0.672-1.244-1.646-1.264-2.678 0.098-0.925 0.536-1.78 1.229-2.4z"></path>
<path d="M4.973 8.156c-0.046 0.046-4.57 4.681-0.021 9.798l0.797-0.708c-3.872-4.356-0.18-8.176-0.020-8.336l-0.378-0.377z"></path>
<path d="M2.798 18.997l0.836-0.661c-3.957-5.009-0.152-10.329 0.013-10.554l-0.86-0.632c-0.045 0.061-4.455 6.194 0.012 11.847z"></path>
<path d="M25.46 16.377c1.004-0.881 1.578-2.153 1.574-3.489-0.111-1.222-0.688-2.355-1.609-3.165l-0.684 0.82c0.695 0.616 1.133 1.47 1.227 2.393-0.017 1.035-0.477 2.013-1.263 2.686z"></path>
<path d="M26.285 17.246l0.797 0.708c4.548-5.117 0.025-9.752-0.021-9.798l-0.755 0.754c0.159 0.16 3.852 3.98-0.020 8.336z"></path>
<path d="M28.386 7.782c0.164 0.224 3.97 5.547 0.012 10.554l0.836 0.661c4.467-5.653 0.057-11.787 0.012-11.847z"></path>
<path d="M15.483 20.267h1.067v1.067h-1.067z"></path>
<path d="M17.617 20.267h1.067v1.067h-1.067z"></path>
<path d="M19.75 20.267h1.067v1.067h-1.067z"></path>
</symbol>
<symbol id="coffee-cup" viewBox="0 0 32 32">
<path d="M5.867 2.667v3.2c0 0.294 0.239 0.533 0.533 0.533h1.109l2.091 25.109c0.022 0.278 0.255 0.492 0.533 0.491h11.733c0.278 0.001 0.511-0.213 0.533-0.491l2.091-25.109h1.109c0.294 0 0.533-0.239 0.533-0.533v-3.2c0-0.294-0.239-0.533-0.533-0.533h-1.067v-1.6c0-0.294-0.239-0.533-0.533-0.533h-16c-0.294 0-0.533 0.239-0.533 0.533v1.6h-1.067c-0.294 0-0.533 0.239-0.533 0.533zM9.067 12.267h13.867l-1.067 12.8h-11.733l-1.067-12.8zM10.624 30.933l-0.4-4.8h11.552l-0.4 4.8h-10.752zM23.019 11.2h-14.037l-0.4-4.8h14.837l-0.4 4.8zM8.533 1.067h14.933v1.067h-14.933v-1.067zM6.933 3.2h18.133v2.133h-18.133v-2.133z"></path>
<path d="M16 22.933c2.356 0 4.267-1.91 4.267-4.267s-1.91-4.267-4.267-4.267c-2.356 0-4.267 1.91-4.267 4.267s1.91 4.267 4.267 4.267zM16 15.467c1.767 0 3.2 1.433 3.2 3.2s-1.433 3.2-3.2 3.2c-1.767 0-3.2-1.433-3.2-3.2s1.433-3.2 3.2-3.2z"></path>
<path d="M20.8 8.533h1.067c0.294 0 0.533-0.239 0.533-0.533s-0.239-0.533-0.533-0.533h-1.067c-0.294 0-0.533 0.239-0.533 0.533s0.239 0.533 0.533 0.533z"></path>
<path d="M10.133 8.533h8.533c0.294 0 0.533-0.239 0.533-0.533s-0.239-0.533-0.533-0.533h-8.533c-0.294 0-0.533 0.239-0.533 0.533s0.239 0.533 0.533 0.533z"></path>
</symbol>
<symbol id="ice-cream-shop" viewBox="0 0 32 32">
<path d="M12.8 25.6h17.067v-12.8h-17.067zM13.867 13.867h14.933v8.533h-3.937l1.75-3.495c0.083-0.165 0.074-0.361-0.023-0.518-0.009-0.014-0.022-0.026-0.032-0.039 0.325-1.091-0.080-2.269-1.006-2.93s-2.172-0.662-3.099 0c-0.927 0.662-1.331 1.839-1.007 2.93-0.010 0.013-0.022 0.023-0.031 0.038-0.097 0.157-0.106 0.353-0.023 0.518l1.745 3.496h-4.47v-1.067h1.067c0.295 0 0.533-0.239 0.533-0.533v-3.733c0-1.178-0.955-2.133-2.133-2.133s-2.133 0.955-2.133 2.133v3.733c0 0.295 0.239 0.533 0.533 0.533h1.067v1.067h-3.733zM25.27 19.2l-1.27 2.541-1.27-2.541zM22.503 18.133c-0.252-0.666-0.033-1.418 0.536-1.845s1.352-0.428 1.921 0c0.569 0.427 0.788 1.179 0.536 1.845zM17.067 20.267v-3.2c0-0.589 0.478-1.067 1.067-1.067s1.067 0.478 1.067 1.067v3.2zM13.867 23.467h14.933v1.067h-14.933z"></path>
<path d="M3.733 19.2h2.133v1.067h-2.133z"></path>
<path d="M3.733 22.4h2.133v1.067h-2.133z"></path>
<path d="M8 19.2h2.133v1.067h-2.133z"></path>
<path d="M8 22.4h2.133v1.067h-2.133z"></path>
<path d="M0 3.2v25.6h32v-25.6zM19.2 4.267h4.267v4.267c0 1.178-0.955 2.133-2.133 2.133s-2.133-0.955-2.133-2.133zM13.867 4.267h4.267v4.267c0 1.178-0.955 2.133-2.133 2.133s-2.133-0.955-2.133-2.133zM8.533 4.267h4.267v4.267c0 1.178-0.955 2.133-2.133 2.133s-2.133-0.955-2.133-2.133zM1.067 4.267h6.4v4.267c0 1.178-0.955 2.133-2.133 2.133h-2.133c-1.178 0-2.133-0.955-2.133-2.133zM10.667 27.733h-7.467v-2.133h7.467zM3.2 24.533v-6.4h3.2v6.4zM10.667 24.533h-3.2v-6.4h3.2zM10.667 17.067h-7.467v-3.2h7.467zM30.933 27.733h-19.2v-14.933h-9.6v14.933h-1.067v-16.821c0.585 0.528 1.345 0.821 2.133 0.821h2.133c1.073-0.001 2.074-0.54 2.667-1.435 0.592 0.896 1.593 1.435 2.667 1.435s2.075-0.539 2.667-1.435c0.592 0.896 1.593 1.435 2.667 1.435s2.075-0.539 2.667-1.435c0.592 0.896 1.593 1.435 2.667 1.435s2.075-0.539 2.667-1.435c0.592 0.895 1.593 1.434 2.667 1.435h2.133c0.788-0 1.548-0.293 2.133-0.821zM30.933 8.533c0 1.178-0.955 2.133-2.133 2.133h-2.133c-1.178 0-2.133-0.955-2.133-2.133v-4.267h6.4z"></path>
<path d="M5.333 7.467h1.067v-2.133h-3.2v1.067h2.133z"></path>
<path d="M28.8 7.467h1.067v-2.133h-3.2v1.067h2.133z"></path>
<path d="M10.667 7.467h1.067v-2.133h-2.133v1.067h1.067z"></path>
<path d="M16 7.467h1.067v-2.133h-2.133v1.067h1.067z"></path>
<path d="M21.333 7.467h1.067v-2.133h-2.133v1.067h1.067z"></path>
</symbol>
<symbol id="frappe" viewBox="0 0 32 32">
<path d="M21.6 7.467h1.067v1.067h-1.067z"></path>
<path d="M22.133 11.733h1.067v1.067h-1.067z"></path>
<path d="M25.796 17.067h0.604c0.295 0 0.533-0.239 0.533-0.533v-2.133c0-0.295-0.239-0.533-0.533-0.533h-1.080c0.515-0.67 0.678-1.545 0.44-2.355s-0.851-1.457-1.647-1.74c0.707-0.779 0.886-1.903 0.458-2.864s-1.384-1.578-2.436-1.574h-0.559c-0.183-2.027-1.404-2.644-2.4-3.144-0.708-0.354-1.202-1.44-1.333-1.825-0.077-0.219-0.285-0.365-0.517-0.364-0.232 0.004-0.435 0.158-0.502 0.38l-1.486 4.954h-0.67c-0.012 0-0.022 0.003-0.034 0.003l-2.696-5.054c-0.093-0.173-0.273-0.282-0.47-0.282h-5.867c-0.295 0-0.533 0.239-0.533 0.533v2.133c0 0.295 0.239 0.533 0.533 0.533h4.018l2.411 4.52c-0.015 0.093-0.024 0.186-0.028 0.28 0.002 0.655 0.247 1.286 0.688 1.771-0.796 0.283-1.408 0.93-1.647 1.74s-0.076 1.686 0.44 2.355h-1.080c-0.295 0-0.533 0.239-0.533 0.533v2.133c0 0.295 0.239 0.533 0.533 0.533h0.604l2.068 14.476c0.038 0.262 0.263 0.458 0.528 0.458h9.6c0.265 0 0.49-0.195 0.528-0.458zM17.46 1.968c0.305 0.49 0.73 0.894 1.235 1.173 0.917 0.458 1.662 0.831 1.813 2.189h-4.053zM14.667 6.4h7.467c0.884 0 1.6 0.716 1.6 1.6s-0.716 1.6-1.6 1.6h-7.467c-0.884 0-1.6-0.716-1.6-1.6s0.716-1.6 1.6-1.6zM12.539 6.41l-2.13-3.995c-0.093-0.174-0.274-0.282-0.471-0.282h-3.804v-1.067h5.013l2.409 4.517c-0.402 0.187-0.752 0.471-1.017 0.827zM13.6 10.667h9.6c0.884 0 1.6 0.716 1.6 1.6s-0.716 1.6-1.6 1.6h-9.6c-0.884 0-1.6-0.716-1.6-1.6s0.716-1.6 1.6-1.6zM22.738 30.933h-8.675l-1.529-10.72c0.008 0 0.018 0.003 0.026 0.004l0.044 0.007c0.153 0.028 0.308 0.042 0.464 0.042 0.618 0.004 1.214-0.228 1.666-0.65 0.264-0.266 0.624-0.416 0.999-0.416s0.735 0.15 0.999 0.416c0.941 0.867 2.391 0.867 3.332 0 0.262-0.269 0.623-0.42 0.999-0.417 0.376-0.002 0.737 0.149 1.002 0.417 0.453 0.422 1.050 0.655 1.669 0.65 0.157-0 0.313-0.014 0.467-0.043 0.014-0.003 0.029-0.004 0.043-0.006s0.019-0.003 0.028-0.005zM24.444 19.002l-0.004 0.003-0.014 0.008c-0.049 0.032-0.101 0.059-0.155 0.083-0.019 0.008-0.039 0.015-0.059 0.023-0.049 0.018-0.099 0.033-0.15 0.044-0.022 0.005-0.044 0.011-0.069 0.015-0.086 0.015-0.173 0.022-0.26 0.022-0.376 0.002-0.737-0.148-1.001-0.416-0.942-0.867-2.392-0.867-3.334 0-0.265 0.266-0.624 0.416-1 0.416s-0.735-0.15-1-0.416c-0.941-0.868-2.391-0.868-3.332 0-0.263 0.269-0.624 0.42-1.001 0.416-0.087 0-0.174-0.008-0.259-0.022-0.025-0.004-0.046-0.010-0.069-0.015-0.050-0.011-0.1-0.026-0.148-0.044-0.020-0.008-0.041-0.015-0.060-0.023-0.051-0.023-0.1-0.049-0.148-0.079-0.007-0.005-0.015-0.008-0.022-0.013l-0.279-1.937h12.637zM10.933 16v-1.067h14.933v1.067z"></path>
<path d="M22.204 20.805c-0.292-0.039-0.56 0.166-0.599 0.458l-1.005 7.537h-1.667c-0.295 0-0.533 0.239-0.533 0.533s0.239 0.533 0.533 0.533h2.133c0.267 0 0.493-0.198 0.529-0.463l1.067-8c0.039-0.292-0.166-0.56-0.458-0.599z"></path>
<path d="M16.8 28.8h-1.067c-0.295 0-0.533 0.239-0.533 0.533s0.239 0.533 0.533 0.533h1.067c0.295 0 0.533-0.239 0.533-0.533s-0.239-0.533-0.533-0.533z"></path>
</symbol>
<symbol id="ice-cream" viewBox="0 0 32 32">
<path d="M11.21 16.006c0.053 0 0.101-0.005 0.152-0.008l4.131 15.604c0.062 0.234 0.274 0.398 0.516 0.398s0.454-0.163 0.515-0.398l4.131-15.604c0.051 0 0.101 0.008 0.152 0.008 1.482 0.003 2.771-1.013 3.113-2.455s-0.352-2.929-1.677-3.592c1.416-2.914 0.624-6.419-1.906-8.442s-6.124-2.023-8.655 0c-2.53 2.023-3.322 5.528-1.906 8.442-1.325 0.663-2.020 2.151-1.678 3.592s1.632 2.458 3.113 2.455zM16.008 29.383l-3.603-13.611c0.412-0.167 0.785-0.418 1.094-0.738 1.422 1.297 3.597 1.297 5.019 0 0.309 0.32 0.681 0.571 1.094 0.738zM10.668 10.755c0.162-0.043 0.295-0.16 0.358-0.315s0.049-0.332-0.038-0.475c-1.487-2.461-0.971-5.637 1.219-7.5s5.408-1.863 7.599 0c2.19 1.863 2.707 5.039 1.219 7.5-0.087 0.144-0.101 0.32-0.038 0.475s0.195 0.272 0.357 0.315c0.926 0.241 1.577 1.071 1.59 2.027s-0.613 1.805-1.531 2.072c-0.918 0.268-1.903-0.111-2.405-0.925-0.092-0.148-0.252-0.242-0.426-0.25h-0.025c-0.167-0.001-0.325 0.077-0.427 0.209-0.502 0.663-1.286 1.052-2.118 1.052s-1.615-0.389-2.117-1.052c-0.108-0.136-0.275-0.214-0.449-0.209-0.175 0.008-0.334 0.102-0.426 0.25-0.502 0.814-1.487 1.193-2.405 0.925s-1.545-1.116-1.531-2.072 0.665-1.786 1.59-2.027z"></path>
<path d="M12.063 10.852c0.248 0.109 0.473 0.265 0.664 0.458 0.123 0.124 0.299 0.181 0.471 0.15s0.319-0.143 0.392-0.301c0.434-0.945 1.378-1.551 2.418-1.551s1.984 0.606 2.418 1.551c0.073 0.159 0.22 0.271 0.392 0.301 0.030 0.005 0.061 0.008 0.092 0.008 0.143-0.001 0.279-0.058 0.379-0.16 0.191-0.193 0.416-0.349 0.664-0.458 0.18-0.072 0.307-0.237 0.331-0.43s-0.059-0.383-0.217-0.497c-0.157-0.114-0.365-0.133-0.54-0.049-0.163 0.072-0.319 0.156-0.468 0.254-0.697-0.995-1.835-1.587-3.050-1.587s-2.353 0.592-3.050 1.587c-0.149-0.097-0.307-0.182-0.47-0.253-0.267-0.107-0.572 0.018-0.687 0.282s0 0.572 0.26 0.695z"></path>
<path d="M16.008 3.211c2.060 0.002 3.729 1.672 3.732 3.732 0 0.294 0.239 0.533 0.533 0.533s0.533-0.239 0.533-0.533c-0.003-2.648-2.15-4.795-4.798-4.798-0.294 0-0.533 0.239-0.533 0.533s0.239 0.533 0.533 0.533z"></path>
</symbol>
<symbol id="close" viewBox="0 0 32 32">
<path d="M32 3.223l-3.223-3.223-12.777 12.777-12.777-12.777-3.223 3.223 12.777 12.777-12.777 12.777 3.223 3.223 12.777-12.777 12.777 12.777 3.223-3.223-12.777-12.777 12.777-12.777z"></path>
</symbol>
</defs>
</svg>
